<svg width="118" height="32" viewBox="0 0 118 32" fill="none" xmlns="http://www.w3.org/2000/svg">
<path d="M16 6.4H22.4V32H16V6.4Z" fill="black"/>
<rect y="6.4" width="6.4" height="32" transform="rotate(-90 0 6.4)" fill="black"/>
<rect x="1" y="8" width="13" height="2" fill="black"/>
<rect x="1" y="12" width="13" height="2" fill="black"/>
<rect x="1" y="16" width="13" height="2" fill="black"/>
<path d="M33.3011 24H30.3182L33.679 13.8182H37.4574L40.8182 24H37.8352L35.608 16.6222H35.5284L33.3011 24ZM32.7443 19.983H38.3523V22.0511H32.7443V19.983ZM46.891 17C46.8645 16.6686 46.7402 16.41 46.5181 16.2244C46.2994 16.0388 45.9663 15.946 45.5188 15.946C45.2338 15.946 45.0001 15.9808 44.8178 16.0504C44.6388 16.1167 44.5063 16.2079 44.4201 16.3239C44.3339 16.4399 44.2892 16.5724 44.2859 16.7216C44.2792 16.8442 44.3008 16.9553 44.3505 17.0547C44.4035 17.1508 44.4864 17.2386 44.5991 17.3182C44.7118 17.3944 44.8559 17.464 45.0316 17.527C45.2073 17.59 45.4161 17.6463 45.658 17.696L46.4933 17.875C47.0567 17.9943 47.5389 18.1518 47.94 18.3473C48.341 18.5429 48.6692 18.7732 48.9244 19.0384C49.1796 19.3002 49.3668 19.5952 49.4862 19.9233C49.6088 20.2514 49.6718 20.6094 49.6751 20.9972C49.6718 21.6667 49.5044 22.2334 49.1729 22.6974C48.8415 23.1615 48.3675 23.5144 47.7511 23.7564C47.1379 23.9983 46.4004 24.1193 45.5387 24.1193C44.6538 24.1193 43.8815 23.9884 43.2219 23.7266C42.5657 23.4647 42.0553 23.062 41.6907 22.5185C41.3294 21.9716 41.1471 21.2723 41.1438 20.4205H43.7688C43.7854 20.732 43.8633 20.9938 44.0025 21.206C44.1417 21.4181 44.3372 21.5788 44.5891 21.6882C44.8443 21.7976 45.1476 21.8523 45.4989 21.8523C45.7939 21.8523 46.0408 21.8158 46.2397 21.7429C46.4386 21.67 46.5894 21.5689 46.6921 21.4396C46.7949 21.3104 46.8479 21.1629 46.8512 20.9972C46.8479 20.8414 46.7965 20.7055 46.6971 20.5895C46.601 20.4702 46.4419 20.3641 46.2198 20.2713C45.9978 20.1752 45.6978 20.0857 45.32 20.0028L44.3058 19.7841C43.4042 19.5885 42.6933 19.2621 42.1729 18.8047C41.6559 18.344 41.399 17.7159 41.4023 16.9205C41.399 16.2741 41.5714 15.709 41.9194 15.2251C42.2707 14.7379 42.7563 14.3584 43.3761 14.0866C43.9992 13.8149 44.7134 13.679 45.5188 13.679C46.3408 13.679 47.0517 13.8165 47.6516 14.0916C48.2515 14.3667 48.7139 14.7545 49.0387 15.255C49.3668 15.7521 49.5326 16.3338 49.5359 17H46.891ZM50.7266 24V13.8182H53.4908V17.9347H53.63L56.6925 13.8182H59.9141L56.4737 18.3523L59.9936 24H56.6925L54.4055 20.1818L53.4908 21.375V24H50.7266ZM69.5975 17.6364H66.7935C66.7736 17.4044 66.7206 17.1939 66.6344 17.005C66.5516 16.8161 66.4355 16.6536 66.2864 16.5178C66.1406 16.3786 65.9632 16.2725 65.7544 16.1996C65.5456 16.1233 65.3087 16.0852 65.0435 16.0852C64.5795 16.0852 64.1867 16.1979 63.8652 16.4233C63.5471 16.6487 63.3051 16.9718 63.1394 17.3928C62.977 17.8137 62.8958 18.3191 62.8958 18.9091C62.8958 19.5322 62.9786 20.0542 63.1444 20.4751C63.3134 20.8928 63.557 21.2076 63.8752 21.4197C64.1934 21.6286 64.5762 21.733 65.0236 21.733C65.2788 21.733 65.5075 21.7015 65.7097 21.6385C65.9119 21.5722 66.0875 21.4777 66.2367 21.3551C66.3858 21.2325 66.5068 21.085 66.5996 20.9126C66.6957 20.737 66.7604 20.5398 66.7935 20.321L69.5975 20.3409C69.5643 20.7718 69.4434 21.2109 69.2346 21.6584C69.0257 22.1025 68.7291 22.5135 68.3446 22.8913C67.9635 23.2659 67.4912 23.5675 66.9277 23.7962C66.3643 24.0249 65.7097 24.1392 64.964 24.1392C64.0293 24.1392 63.1908 23.9387 62.4483 23.5376C61.7092 23.1366 61.1242 22.5466 60.6934 21.7678C60.2658 20.9889 60.052 20.036 60.052 18.9091C60.052 17.7756 60.2708 16.821 60.7083 16.0455C61.1458 15.2666 61.7357 14.6783 62.4782 14.2805C63.2206 13.8795 64.0492 13.679 64.964 13.679C65.6069 13.679 66.1986 13.7668 66.7388 13.9425C67.2791 14.1181 67.753 14.375 68.1607 14.7131C68.5684 15.0478 68.8965 15.4605 69.1451 15.951C69.3936 16.4415 69.5444 17.0033 69.5975 17.6364ZM73.182 24H70.199L73.5598 13.8182H77.3382L80.699 24H77.7161L75.4888 16.6222H75.4093L73.182 24ZM72.6252 19.983H78.2331V22.0511H72.6252V19.983ZM86.7718 17C86.7453 16.6686 86.621 16.41 86.399 16.2244C86.1802 16.0388 85.8471 15.946 85.3997 15.946C85.1146 15.946 84.881 15.9808 84.6987 16.0504C84.5197 16.1167 84.3871 16.2079 84.301 16.3239C84.2148 16.4399 84.17 16.5724 84.1667 16.7216C84.1601 16.8442 84.1816 16.9553 84.2314 17.0547C84.2844 17.1508 84.3672 17.2386 84.4799 17.3182C84.5926 17.3944 84.7368 17.464 84.9125 17.527C85.0881 17.59 85.2969 17.6463 85.5389 17.696L86.3741 17.875C86.9376 17.9943 87.4198 18.1518 87.8208 18.3473C88.2219 18.5429 88.55 18.7732 88.8052 19.0384C89.0604 19.3002 89.2477 19.5952 89.367 19.9233C89.4896 20.2514 89.5526 20.6094 89.5559 20.9972C89.5526 21.6667 89.3852 22.2334 89.0538 22.6974C88.7224 23.1615 88.2484 23.5144 87.6319 23.7564C87.0188 23.9983 86.2813 24.1193 85.4196 24.1193C84.5346 24.1193 83.7624 23.9884 83.1028 23.7266C82.4466 23.4647 81.9361 23.062 81.5716 22.5185C81.2103 21.9716 81.028 21.2723 81.0247 20.4205H83.6497C83.6663 20.732 83.7441 20.9938 83.8833 21.206C84.0225 21.4181 84.2181 21.5788 84.47 21.6882C84.7252 21.7976 85.0285 21.8523 85.3798 21.8523C85.6748 21.8523 85.9217 21.8158 86.1206 21.7429C86.3194 21.67 86.4702 21.5689 86.573 21.4396C86.6757 21.3104 86.7288 21.1629 86.7321 20.9972C86.7288 20.8414 86.6774 20.7055 86.5779 20.5895C86.4818 20.4702 86.3227 20.3641 86.1007 20.2713C85.8786 20.1752 85.5787 20.0857 85.2008 20.0028L84.1866 19.7841C83.2851 19.5885 82.5742 19.2621 82.0538 18.8047C81.5368 18.344 81.2799 17.7159 81.2832 16.9205C81.2799 16.2741 81.4522 15.709 81.8002 15.2251C82.1516 14.7379 82.6371 14.3584 83.2569 14.0866C83.88 13.8149 84.5943 13.679 85.3997 13.679C86.2217 13.679 86.9326 13.8165 87.5325 14.0916C88.1324 14.3667 88.5948 14.7545 88.9196 15.255C89.2477 15.7521 89.4134 16.3338 89.4167 17H86.7718ZM90.329 16.0455V13.8182H99.1784V16.0455H96.1159V24H93.3915V16.0455H90.329ZM100.219 24V13.8182H107.557V16.0455H102.983V17.7955H107.179V20.0227H102.983V21.7727H107.537V24H100.219ZM108.928 24V13.8182H113.323C114.078 13.8182 114.74 13.9557 115.306 14.2308C115.873 14.5059 116.314 14.902 116.629 15.419C116.944 15.9361 117.101 16.5559 117.101 17.2784C117.101 18.0076 116.939 18.6224 116.614 19.1229C116.292 19.6233 115.84 20.0012 115.257 20.2564C114.677 20.5116 113.999 20.6392 113.223 20.6392H110.598V18.4915H112.666C112.991 18.4915 113.268 18.4517 113.497 18.3722C113.729 18.2893 113.906 18.1584 114.029 17.9794C114.155 17.8004 114.218 17.5668 114.218 17.2784C114.218 16.9867 114.155 16.7498 114.029 16.5675C113.906 16.3819 113.729 16.246 113.497 16.1598C113.268 16.0703 112.991 16.0256 112.666 16.0256H111.692V24H108.928ZM114.894 19.3267L117.439 24H114.436L111.95 19.3267H114.894Z" fill="black"/>
</svg>
